# This file uses centimeters as units for non-parametric coordinates.

mtllib chair.mtl
g default
v -0.429073 -0.026634 0.420002
v 0.429073 -0.026634 0.420002
v -0.429073 0.026634 0.420002
v 0.429073 0.026634 0.420002
v -0.429073 0.026634 -0.420002
v 0.429073 0.026634 -0.420002
v -0.429073 -0.026634 -0.420002
v 0.429073 -0.026634 -0.420002
v -0.373545 -0.026634 0.420002
v -0.373545 -0.026634 -0.420002
v -0.373545 0.026634 -0.420002
v -0.373545 0.026634 0.420002
v -0.429073 0.026634 0.362150
v -0.373545 0.026634 0.362150
v 0.429073 0.026634 0.362150
v 0.429073 -0.026634 0.362150
v -0.373545 -0.026634 0.362150
v -0.429073 -0.026634 0.362150
v 0.370163 -0.026634 0.420002
v 0.370163 -0.026634 0.362150
v 0.370163 -0.026634 -0.420002
v 0.370163 0.026634 -0.420002
v 0.370163 0.026634 0.362150
v 0.370163 0.026634 0.420002
v -0.429073 -0.026634 -0.360980
v -0.373545 -0.026634 -0.360980
v 0.370163 -0.026634 -0.360980
v 0.429073 -0.026634 -0.360980
v 0.429073 0.026634 -0.360980
v 0.370163 0.026634 -0.360980
v -0.373545 0.026634 -0.360980
v -0.429073 0.026634 -0.360980
v -0.482348 1.015850 -0.512442
v -0.482348 1.015850 -0.427622
v 0.478966 1.015850 -0.427622
v 0.478966 1.015850 -0.512442
v 0.370163 -0.514444 0.420002
v 0.370163 -0.514444 0.362150
v 0.429073 -0.514444 0.362150
v 0.429073 -0.514444 0.420002
v -0.373545 -0.514444 0.362150
v -0.429073 -0.514444 0.362150
v -0.373545 -0.514444 0.420002
v -0.429073 -0.514444 0.420002
v -0.429073 -0.514444 -0.420002
v -0.373545 -0.514444 -0.420002
v -0.373545 -0.514444 -0.360980
v -0.429073 -0.514444 -0.360980
v 0.370163 -0.514444 -0.360979
v 0.429073 -0.514444 -0.360980
v 0.370163 -0.514444 -0.420001
v 0.429073 -0.514444 -0.420001
v -0.429073 0.026634 0.299924
v -0.373545 0.026634 0.299924
v 0.370163 0.026634 0.299924
v 0.429073 0.026634 0.299924
v 0.429073 -0.026634 0.299924
v 0.370163 -0.026634 0.299924
v -0.373545 -0.026634 0.299924
v -0.429073 -0.026634 0.299924
v 0.429073 0.281657 -0.360980
v 0.370163 0.281657 -0.360980
v 0.370163 0.281657 0.299924
v 0.429073 0.281657 0.299924
v -0.429073 0.281657 0.299924
v -0.373545 0.281657 0.299924
v -0.373545 0.281657 -0.360980
v -0.429073 0.281657 -0.360980
v -0.305791 -0.026634 -0.360980
v -0.305791 -0.026634 -0.420002
v -0.305791 0.026634 -0.481484
v -0.394770 1.015850 -0.512442
v -0.394770 1.015850 -0.427622
v -0.305791 0.026634 -0.326960
v -0.474466 0.944192 -0.505745
v -0.474466 0.944192 -0.422794
v -0.388324 0.944191 -0.388775
v 0.471084 0.944192 -0.422794
v 0.471084 0.944192 -0.505745
v -0.388324 0.944192 -0.567228
v 0.309372 0.026634 -0.326960
v 0.393795 0.944191 -0.388775
v 0.400388 1.015850 -0.427622
v 0.400388 1.015850 -0.512442
v 0.393795 0.944192 -0.567228
v 0.309372 0.026634 -0.481484
v 0.309372 -0.026634 -0.420002
v 0.309372 -0.026634 -0.360980
v 0.429073 0.234091 -0.360980
v 0.370163 0.234091 -0.360980
v 0.370163 0.234091 0.299924
v 0.429073 0.234091 0.299924
v -0.429073 0.231748 0.299924
v -0.373545 0.231748 0.299924
v -0.373545 0.231748 -0.360980
v -0.429073 0.231748 -0.360980
v 0.370163 0.026634 -0.306747
v 0.370163 0.234091 -0.306747
v 0.370163 0.281657 -0.306747
v 0.429073 0.281657 -0.306747
v 0.429073 0.234091 -0.306747
v 0.429073 0.026634 -0.306747
v 0.429073 0.026634 0.249243
v 0.429073 0.234091 0.249243
v 0.429073 0.281657 0.249243
v 0.370163 0.281657 0.249243
v 0.370163 0.234091 0.249243
v 0.370163 0.026634 0.249243
v -0.373545 0.026634 -0.300054
v -0.373545 0.231748 -0.300054
v -0.373545 0.281657 -0.300054
v -0.429073 0.281657 -0.300054
v -0.429073 0.231748 -0.300054
v -0.429073 0.026634 -0.300054
v -0.429073 0.026634 0.245461
v -0.429073 0.231748 0.245460
v -0.429073 0.281657 0.245461
v -0.373545 0.281657 0.245460
v -0.373545 0.231748 0.245460
v -0.373545 0.026634 0.245460
vt 0.375000 0.000000
vt 0.625000 0.000000
vt 0.375000 0.250000
vt 0.625000 0.250000
vt 0.375000 0.500000
vt 0.625000 0.500000
vt 0.375000 0.750000
vt 0.625000 0.750000
vt 0.375000 1.000000
vt 0.625000 1.000000
vt 0.875000 0.000000
vt 0.875000 0.250000
vt 0.125000 0.000000
vt 0.125000 0.250000
vt 0.391177 0.000000
vt 0.391177 1.000000
vt 0.391177 0.750000
vt 0.391177 0.500000
vt 0.391177 0.250000
vt 0.357782 0.250000
vt 0.375000 0.267218
vt 0.391177 0.267218
vt 0.625000 0.267218
vt 0.642218 0.250000
vt 0.625000 0.982782
vt 0.642218 0.000000
vt 0.391177 0.982782
vt 0.357782 0.000000
vt 0.375000 0.982782
vt 0.607838 0.000000
vt 0.607838 1.000000
vt 0.607838 0.982782
vt 0.607838 0.750000
vt 0.607838 0.500000
vt 0.607838 0.267218
vt 0.607838 0.250000
vt 0.142566 0.000000
vt 0.375000 0.767566
vt 0.391177 0.767566
vt 0.607838 0.767566
vt 0.625000 0.767566
vt 0.857434 0.000000
vt 0.625000 0.482434
vt 0.857434 0.250000
vt 0.607838 0.482434
vt 0.391177 0.482434
vt 0.142566 0.250000
vt 0.375000 0.482434
vt 0.391177 0.500000
vt 0.391177 0.482434
vt 0.607838 0.482434
vt 0.607838 0.500000
vt 0.607838 1.000000
vt 0.607838 0.982782
vt 0.625000 0.982782
vt 0.625000 1.000000
vt 0.375000 0.982782
vt 0.391177 0.982782
vt 0.391177 1.000000
vt 0.375000 1.000000
vt 0.375000 0.750000
vt 0.391177 0.750000
vt 0.391177 0.767566
vt 0.375000 0.767566
vt 0.625000 0.767566
vt 0.607838 0.767566
vt 0.607838 0.750000
vt 0.625000 0.750000
vt 0.339263 0.250000
vt 0.375000 0.285737
vt 0.391177 0.285737
vt 0.607838 0.285737
vt 0.625000 0.285737
vt 0.660737 0.250000
vt 0.625000 0.964263
vt 0.660737 0.000000
vt 0.607838 0.964263
vt 0.391177 0.964263
vt 0.339263 0.000000
vt 0.375000 0.964263
vt 0.625000 0.482434
vt 0.607838 0.482434
vt 0.607838 0.285737
vt 0.625000 0.285737
vt 0.375000 0.285737
vt 0.391177 0.285737
vt 0.391177 0.482434
vt 0.375000 0.482434
vt 0.410915 0.767566
vt 0.410915 0.750000
vt 0.410915 0.500000
vt 0.410915 0.500000
vt 0.410915 0.482434
vt 0.410915 0.482434
vt 0.391177 0.500000
vt 0.391177 0.482434
vt 0.410915 0.482434
vt 0.607838 0.482434
vt 0.607838 0.500000
vt 0.410915 0.500000
vt 0.590128 0.482434
vt 0.590128 0.482434
vt 0.590128 0.482434
vt 0.590128 0.500000
vt 0.590128 0.500000
vt 0.590128 0.500000
vt 0.590128 0.750000
vt 0.590128 0.767566
vt 0.625000 0.482434
vt 0.607838 0.482434
vt 0.607838 0.285737
vt 0.625000 0.285737
vt 0.375000 0.285737
vt 0.391177 0.285737
vt 0.391177 0.482434
vt 0.375000 0.482434
vt 0.607838 0.466293
vt 0.607838 0.466293
vt 0.607838 0.466293
vt 0.625000 0.466293
vt 0.625000 0.466293
vt 0.625000 0.466293
vt 0.841293 0.250000
vt 0.625000 0.300821
vt 0.675821 0.250000
vt 0.625000 0.300821
vt 0.625000 0.300821
vt 0.607838 0.300821
vt 0.607838 0.300821
vt 0.607838 0.300821
vt 0.391177 0.464301
vt 0.391177 0.464301
vt 0.391177 0.464301
vt 0.375000 0.464301
vt 0.375000 0.464301
vt 0.160699 0.250000
vt 0.375000 0.464301
vt 0.323053 0.250000
vt 0.375000 0.301947
vt 0.375000 0.301947
vt 0.375000 0.301947
vt 0.391177 0.301947
vt 0.391177 0.301947
vt 0.391177 0.301947
vn 0.000000 0.000000 1.000000
vn 0.000000 0.000000 1.000000
vn 0.000000 0.000000 1.000000
vn 0.000000 0.000000 1.000000
vn 0.000000 1.000000 0.000000
vn 0.000000 1.000000 0.000000
vn 0.000000 1.000000 0.000000
vn 0.000000 1.000000 0.000000
vn 0.046519 -0.053089 -0.997506
vn 0.633058 -0.146959 -0.760026
vn 0.000000 0.000000 -1.000000
vn 0.000000 -0.000000 -1.000000
vn 0.000000 -1.000000 0.000000
vn 0.000000 -1.000000 0.000000
vn 0.000000 -1.000000 -0.000000
vn 0.000000 -1.000000 -0.000000
vn 0.000000 -1.000000 -0.000000
vn 0.000000 -1.000000 -0.000000
vn 1.000000 0.000000 0.000000
vn 1.000000 0.000000 0.000000
vn 1.000000 0.000000 0.000000
vn 1.000000 0.000000 -0.000000
vn 1.000000 0.000000 -0.000000
vn 1.000000 0.000000 0.000000
vn 1.000000 0.000000 0.000000
vn 1.000000 0.000000 0.000000
vn -1.000000 0.000000 -0.000000
vn -1.000000 0.000000 -0.000000
vn -1.000000 0.000000 0.000000
vn -1.000000 0.000000 0.000000
vn -1.000000 0.000000 0.000000
vn -1.000000 0.000000 0.000000
vn -1.000000 0.000000 0.000000
vn -1.000000 0.000000 0.000000
vn 0.000000 -1.000000 0.000000
vn 0.000000 -1.000000 0.000000
vn 0.000000 -1.000000 0.000000
vn 0.000000 -1.000000 0.000000
vn 0.000000 -1.000000 -0.000000
vn 0.000000 -1.000000 0.000000
vn 0.000000 0.000000 -1.000000
vn -0.594905 -0.146553 -0.790323
vn -0.048507 -0.061699 -0.996915
vn 0.000000 0.000000 -1.000000
vn 0.000000 1.000000 -0.000000
vn 0.000000 1.000000 -0.000000
vn 0.000000 1.000000 0.000000
vn 0.000000 1.000000 0.000000
vn 0.000000 0.000000 1.000000
vn 0.000000 0.000000 1.000000
vn 0.000000 0.000000 1.000000
vn 0.000000 0.000000 1.000000
vn 0.000000 1.000000 0.000000
vn 0.000000 1.000000 0.000000
vn 0.000000 1.000000 0.000000
vn 0.000000 1.000000 0.000000
vn 0.000000 1.000000 0.000000
vn 0.000000 1.000000 0.000000
vn 0.000000 1.000000 0.000000
vn 0.000000 1.000000 0.000000
vn 1.000000 0.000000 0.000000
vn 1.000000 0.000000 0.000000
vn 0.000000 -1.000000 0.000000
vn 0.000000 -1.000000 0.000000
vn 0.000000 -1.000000 0.000000
vn 0.000000 -1.000000 0.000000
vn 0.000000 -1.000000 0.000000
vn 0.000000 -1.000000 0.000000
vn 0.000000 -1.000000 0.000000
vn 0.000000 -1.000000 0.000000
vn -1.000000 0.000000 0.000000
vn -1.000000 0.000000 0.000000
vn 0.000000 -1.000000 -0.000000
vn 0.000000 -1.000000 -0.000000
vn 0.000000 -1.000000 0.000000
vn 0.000000 -1.000000 0.000000
vn -0.030312 -0.738673 -0.673382
vn -0.072286 -0.144567 -0.986851
vn 0.073090 -0.144895 -0.986744
vn 0.030543 -0.740298 -0.671585
vn 0.000000 1.000000 0.000000
vn 0.000000 1.000000 0.000000
vn 0.000000 1.000000 0.000000
vn 0.000000 1.000000 0.000000
vn 0.000000 1.000000 0.000000
vn 0.000000 1.000000 0.000000
vn 0.000000 1.000000 0.000000
vn 0.000000 1.000000 0.000000
vn 0.000000 1.000000 0.000000
vn 0.000000 1.000000 0.000000
vn 0.000000 -1.000000 0.000000
vn 0.000000 -1.000000 0.000000
vn 0.000000 -1.000000 0.000000
vn 0.000000 -1.000000 0.000000
vn 0.000000 -1.000000 0.000000
vn 0.000000 -1.000000 0.000000
vn 0.000000 -1.000000 0.000000
vn 0.000000 -1.000000 0.000000
vn 0.000000 -1.000000 0.000000
vn 0.000000 -1.000000 0.000000
vn 1.000000 0.000000 0.000000
vn 1.000000 0.000000 0.000000
vn 0.000000 1.000000 0.000000
vn 0.000000 1.000000 0.000000
vn 0.000000 1.000000 0.000000
vn 0.000000 1.000000 0.000000
vn 0.000000 1.000000 0.000000
vn 0.000000 1.000000 0.000000
vn 0.000000 1.000000 0.000000
vn 0.000000 1.000000 0.000000
vn 0.000000 1.000000 0.000000
vn 0.000000 1.000000 0.000000
vn 0.000000 1.000000 0.000000
vn 0.000000 1.000000 0.000000
vn -1.000000 0.000000 0.000000
vn -1.000000 0.000000 0.000000
vn -0.994006 -0.109330 0.000000
vn -0.994006 -0.109330 0.000000
vn -0.994006 -0.109330 0.000000
vn -0.994006 -0.109330 0.000000
vn -0.018904 0.457215 0.889155
vn -0.045893 0.101626 0.993764
vn 0.046512 0.101840 0.993713
vn 0.019139 0.458820 0.888323
vn 0.994006 -0.109330 -0.000000
vn 0.994006 -0.109330 -0.000000
vn 0.994006 -0.109330 0.000000
vn 0.994006 -0.109330 0.000000
vn 0.031323 0.583308 -0.811647
vn 0.079732 -0.029650 -0.996375
vn -0.079073 -0.030104 -0.996414
vn -0.030980 0.581106 -0.813238
vn -1.000000 0.000000 -0.000002
vn -1.000000 0.000000 -0.000002
vn -1.000000 0.000000 -0.000002
vn -1.000000 0.000000 -0.000002
vn 0.000001 -0.000000 -1.000000
vn 0.000001 -0.000000 -1.000000
vn 0.000001 -0.000000 -1.000000
vn 0.000001 -0.000000 -1.000000
vn 1.000000 0.000000 0.000000
vn 1.000000 0.000000 0.000000
vn 0.000000 0.000000 1.000000
vn 0.000000 0.000000 1.000000
vn 0.000004 0.000000 -1.000000
vn 0.000004 0.000000 -1.000000
vn 0.000004 0.000000 -1.000000
vn 0.000004 0.000000 -1.000000
vn 1.000000 -0.000000 0.000000
vn 1.000000 -0.000000 0.000000
vn 1.000000 -0.000000 0.000000
vn 1.000000 -0.000000 0.000000
vn 0.000000 0.000000 1.000000
vn 0.000000 0.000000 1.000000
vn -1.000000 0.000000 0.000000
vn -1.000000 0.000000 0.000000
vn 0.000000 0.000000 -1.000000
vn 0.000000 0.000000 -1.000000
vn 1.000000 0.000000 0.000000
vn 1.000000 0.000000 0.000000
vn 1.000000 0.000000 0.000000
vn 1.000000 0.000000 0.000000
vn -0.000003 0.000000 1.000000
vn -0.000003 0.000000 1.000000
vn -0.000003 0.000000 1.000000
vn -0.000003 0.000000 1.000000
vn -1.000000 0.000000 0.000000
vn -1.000000 0.000000 0.000000
vn 0.000003 0.000001 1.000000
vn 0.000003 0.000001 1.000000
vn 0.000003 0.000001 1.000000
vn 0.000003 0.000001 1.000000
vn -1.000000 -0.000000 -0.000001
vn -1.000000 -0.000000 -0.000001
vn -1.000000 -0.000000 -0.000001
vn -1.000000 -0.000000 -0.000001
vn 0.000000 -0.000000 -1.000000
vn 0.000000 -0.000000 -1.000000
vn 1.000000 0.000000 0.000000
vn 1.000000 0.000000 0.000000
vn 0.000000 1.000000 0.000000
vn 0.000000 1.000000 0.000000
vn 0.000004 -0.000000 -1.000000
vn 0.000004 -0.000000 -1.000000
vn 0.000003 0.000000 -1.000000
vn 0.000003 0.000000 -1.000000
vn -1.000000 0.000000 0.000000
vn -1.000000 0.000000 -0.000000
vn -1.000000 0.000001 -0.000000
vn -1.000000 0.000000 0.000000
vn -0.000001 0.000000 1.000000
vn -0.000001 0.000000 1.000000
vn -0.000001 0.000000 1.000000
vn -0.000001 0.000000 1.000000
vn 1.000000 0.000001 -0.000000
vn 1.000000 -0.000000 -0.000000
vn 1.000000 0.000000 0.000000
vn 1.000000 0.000000 0.000000
vn 0.000006 0.000000 1.000000
vn 0.000006 0.000000 1.000000
vn 0.000005 0.000000 1.000000
vn 0.000005 0.000000 1.000000
vn 1.000000 -0.000000 0.000000
vn 1.000000 0.000000 0.000000
vn 1.000000 -0.000000 0.000000
vn 1.000000 -0.000000 0.000000
vn -0.000004 0.000000 -1.000000
vn -0.000004 0.000000 -1.000000
vn -0.000004 0.000000 -1.000000
vn -0.000004 0.000000 -1.000000
vn -1.000000 -0.000001 0.000000
vn -1.000000 -0.000000 0.000000
vn -1.000000 -0.000000 -0.000000
vn -1.000000 -0.000001 -0.000000
vn 0.000000 -1.000000 0.000000
vn -0.602434 -0.105516 -0.791163
vn -0.321032 0.272276 -0.907086
vn 0.000000 1.000000 0.000001
vn 0.000000 1.000000 0.000001
vn -0.386069 0.044008 0.921420
vn -0.185067 0.269493 0.945052
vn -0.994006 -0.109330 0.000000
vn -0.994006 -0.109330 0.000000
vn -0.404263 0.021188 0.914397
vn -0.038946 0.063289 0.997235
vn 0.039195 0.063223 0.997229
vn 0.994006 -0.109330 -0.000000
vn 0.994006 -0.109330 -0.000000
vn 0.422795 0.038484 0.905408
vn 0.441950 0.015787 0.896901
vn 0.205544 0.266226 0.941741
vn 0.000000 1.000000 0.000000
vn 0.000000 1.000000 0.000000
vn 0.643391 -0.108595 -0.757797
vn 0.353798 0.265228 -0.896929
vn 0.000000 -1.000000 0.000000
vn 0.000004 -0.000000 -1.000000
vn 0.000004 -0.000000 -1.000000
vn -1.000000 0.000000 0.000000
vn -1.000000 0.000000 -0.000000
vn -0.000002 0.000000 1.000000
vn -0.000002 0.000000 1.000000
vn 0.000006 0.000000 1.000000
vn 0.000006 0.000000 1.000000
vn 1.000000 0.000000 0.000000
vn 1.000000 0.000000 0.000000
vn -0.000004 -0.000000 -1.000000
vn -0.000004 -0.000000 -1.000000
vn -1.000000 0.000000 -0.000000
vn -1.000000 0.000000 -0.000000
vn -1.000000 0.000000 0.000001
vn -1.000000 0.000000 0.000001
vn -1.000000 0.000001 -0.000000
vn -1.000000 0.000001 0.000000
vn 0.000000 1.000000 0.000000
vn 0.000000 1.000000 0.000000
vn 0.000000 1.000000 0.000000
vn 0.000000 1.000000 0.000000
vn 1.000000 0.000000 0.000000
vn 1.000000 0.000000 -0.000000
vn 1.000000 0.000001 -0.000000
vn 1.000000 0.000000 0.000000
vn 1.000000 0.000000 0.000000
vn 1.000000 0.000000 0.000000
vn 1.000000 0.000000 0.000000
vn 0.000000 1.000000 0.000000
vn 0.000000 1.000000 0.000000
vn -1.000000 -0.000000 0.000000
vn -1.000000 -0.000001 0.000000
vn -1.000000 -0.000000 -0.000001
vn -1.000000 -0.000001 -0.000001
vn 0.000000 1.000000 -0.000000
vn 0.000000 1.000000 -0.000000
vn 1.000000 0.000000 0.000000
vn 1.000000 0.000000 0.000000
vn 1.000000 0.000000 0.000000
s 1
g pCube1
usemtl phong1SG
f 24/36/1 19/30/2 2/2/3 4/4/4
s 2
f 61/81/5 62/82/6 99/119/7 100/120/8
s 3
f 21/33/9 22/34/10 6/6/11 8/8/12
s 4
f 58/77/13 27/40/14 28/41/15 57/75/16 16/25/17 20/32/18
s 5
f 57/76/19 28/42/20 29/44/21 102/123/22 103/125/23 56/74/24 15/24/25 16/26/26
s 6
f 53/69/27 115/138/28 114/136/29 32/47/30 25/37/31 60/79/32 18/28/33 13/20/34
s 4
f 60/80/35 25/38/36 26/39/37 59/78/38 17/27/39 18/29/40
s 3
f 5/5/41 11/18/42 10/17/43 7/7/44
s 8
f 117/141/45 118/142/46 111/133/47 112/134/48
s 1
f 1/1/49 9/15/50 12/19/51 3/3/52
s 10
f 3/3/53 12/19/54 14/22/55 13/21/56
f 15/23/57 23/35/58 24/36/59 4/4/60
s 5
f 2/2/61 16/26/26 15/24/25 4/4/62
s off
f 37/53/63 38/54/64 39/55/65 40/56/66
f 42/57/67 41/58/68 43/59/69 44/60/70
s 6
f 13/20/34 18/28/33 1/1/71 3/3/72
s 4
f 9/16/73 17/27/39 20/32/18 19/31/74
f 59/78/38 26/39/37 69/89/75 88/108/76 27/40/14 58/77/13 20/32/18 17/27/39
s 3
f 70/90/77 71/91/78 86/106/79 87/107/80
s 10
f 55/72/81 108/130/82 97/117/83 30/45/84 81/101/85 74/94/86 31/46/87 109/131/88 120/144/89 54/71/90 14/22/55 23/35/58
f 24/36/59 23/35/58 14/22/55 12/19/54
s 1
f 12/19/51 9/15/50 19/30/2 24/36/1
s off
f 45/61/91 46/62/92 47/63/93 48/64/94
s 4
f 87/107/95 88/108/76 69/89/75 70/90/96
s off
f 50/65/97 49/66/98 51/67/99 52/68/100
s 5
f 29/44/21 28/42/20 8/11/101 6/12/102
s off
f 22/34/103 30/45/104 29/43/105 6/6/106
s 12
f 72/92/107 73/93/108 83/103/109 84/104/110
s off
f 32/48/111 31/46/112 11/18/113 5/5/114
s 6
f 7/13/115 25/37/31 32/47/30 5/14/116
s 13
f 75/95/117 76/96/118 34/50/119 33/49/120
s 14
f 73/93/121 77/97/122 82/102/123 83/103/124
s 15
f 78/98/125 79/99/126 36/52/127 35/51/128
s 3
f 84/104/129 85/105/130 80/100/131 72/92/132
s off
f 19/31/133 20/32/134 38/54/135 37/53/136
f 20/32/137 16/25/138 39/55/139 38/54/140
s 5
f 16/25/26 2/10/61 40/56/141 39/55/142
s 1
f 2/10/3 19/31/2 37/53/143 40/56/144
s off
f 18/29/145 17/27/146 41/58/147 42/57/148
f 17/27/149 9/16/150 43/59/151 41/58/152
s 1
f 9/16/50 1/9/49 44/60/153 43/59/154
s 6
f 1/9/71 18/29/33 42/57/155 44/60/156
s 3
f 7/7/44 10/17/43 46/62/157 45/61/158
s off
f 10/17/159 26/39/160 47/63/161 46/62/162
f 26/39/163 25/38/164 48/64/165 47/63/166
s 6
f 25/38/31 7/7/115 45/61/167 48/64/168
s off
f 28/41/169 27/40/170 49/66/171 50/65/172
f 27/40/173 21/33/174 51/67/175 49/66/176
s 3
f 21/33/9 8/8/12 52/68/177 51/67/178
s 5
f 8/8/101 28/41/20 50/65/179 52/68/180
s 10
f 13/21/56 14/22/55 54/71/90 53/70/181
f 56/73/182 55/72/81 23/35/58 15/23/57
s 17
f 89/109/183 90/110/184 62/82/185 61/81/186
s 18
f 90/110/187 98/118/188 99/119/189 62/82/190
s 19
f 91/111/191 92/112/192 64/84/193 63/83/194
s 5
f 100/120/195 101/121/196 89/109/197 61/81/198
s 21
f 93/113/199 94/114/200 66/86/201 65/85/202
s 22
f 118/142/203 119/143/204 110/132/205 111/133/206
s 23
f 95/115/207 96/116/208 68/88/209 67/87/210
s 6
f 112/134/211 113/135/212 116/140/213 117/141/214
s 4
f 70/90/96 69/89/75 26/39/37 10/17/215
s 3
f 10/17/43 11/18/42 71/91/78 70/90/77
f 72/92/132 80/100/131 75/95/216 33/49/217
s 12
f 33/49/218 34/50/219 73/93/108 72/92/107
s 14
f 76/96/220 77/97/122 73/93/121 34/50/221
s 13
f 11/18/222 31/46/223 76/96/118 75/95/117
s 14
f 31/46/224 74/94/225 77/97/122 76/96/220
f 81/101/226 82/102/123 77/97/122 74/94/225
s 15
f 30/45/227 22/34/228 79/99/126 78/98/125
s 3
f 85/105/130 86/106/79 71/91/78 80/100/131
f 75/95/216 80/100/131 71/91/78 11/18/42
s 14
f 78/98/229 82/102/123 81/101/226 30/45/230
f 83/103/124 82/102/123 78/98/229 35/51/231
s 12
f 84/104/110 83/103/109 35/51/232 36/52/233
s 3
f 79/99/234 85/105/130 84/104/129 36/52/235
f 22/34/10 86/106/79 85/105/130 79/99/234
f 87/107/80 86/106/79 22/34/10 21/33/9
s 4
f 21/33/236 27/40/14 88/108/76 87/107/95
s 17
f 29/43/237 30/45/238 90/110/184 89/109/183
s 18
f 30/45/239 97/117/240 98/118/188 90/110/187
s 19
f 55/72/241 56/73/242 92/112/192 91/111/191
s 5
f 101/121/196 102/122/22 29/43/21 89/109/197
s 21
f 53/70/243 54/71/244 94/114/200 93/113/199
s 22
f 119/143/204 120/144/245 109/131/246 110/132/205
s 23
f 31/46/247 32/48/248 96/116/208 95/115/207
s 6
f 113/135/212 114/137/29 115/139/28 116/140/213
s 18
f 107/129/249 108/130/250 55/72/251 91/111/252
f 106/128/253 107/129/249 91/111/252 63/83/254
s 2
f 105/127/255 106/128/256 63/83/257 64/84/258
s 5
f 92/112/259 104/126/260 105/127/261 64/84/262
f 56/73/24 103/124/23 104/126/260 92/112/259
f 104/126/260 103/124/23 102/122/22 101/121/196
f 105/127/261 104/126/260 101/121/196 100/120/195
s 2
f 100/120/8 99/119/7 106/128/256 105/127/255
s 18
f 99/119/189 98/118/188 107/129/249 106/128/253
f 98/118/188 97/117/240 108/130/250 107/129/249
s 22
f 110/132/205 109/131/246 31/46/263 95/115/264
f 111/133/206 110/132/205 95/115/264 67/87/265
s 8
f 112/134/48 111/133/47 67/87/266 68/88/267
s 6
f 96/116/268 113/135/212 112/134/211 68/88/269
f 32/48/30 114/137/29 113/135/212 96/116/268
f 116/140/213 115/139/28 53/70/27 93/113/270
f 117/141/214 116/140/213 93/113/270 65/85/271
s 8
f 65/85/272 66/86/273 118/142/46 117/141/45
s 22
f 94/114/274 119/143/204 118/142/203 66/86/275
f 54/71/276 120/144/245 119/143/204 94/114/274
