# This file uses centimeters as units for non-parametric coordinates.

mtllib monitor_fixed.mtl
g default
v -0.126857 0.005393 0.102469
v 0.125030 0.005393 0.102469
v -0.126857 0.019685 0.102469
v 0.125030 0.019685 0.102469
v -0.126857 0.019685 -0.109454
v 0.125030 0.019685 -0.109454
v -0.126857 0.005393 -0.109454
v 0.125030 0.005393 -0.109454
v -0.021362 0.019685 -0.030039
v 0.021362 0.019685 -0.030039
v 0.021362 0.019685 -0.076948
v -0.021362 0.019685 -0.076948
v -0.021362 0.386617 -0.030039
v 0.021362 0.386617 -0.030039
v 0.021362 0.386617 -0.076948
v -0.021362 0.386617 -0.076948
v -0.021362 0.304400 -0.030039
v 0.021362 0.304400 -0.030039
v 0.021362 0.369525 -0.030039
v -0.021362 0.369525 -0.030039
v -0.381263 0.075506 0.013942
v 0.381263 0.075506 0.013942
v 0.381263 0.598419 0.013942
v -0.381263 0.598419 0.013942
v -0.381263 0.075506 0.031598
v 0.381263 0.075506 0.031598
v 0.381263 0.598419 0.031598
v -0.381263 0.598419 0.031598
v -0.365606 0.092903 0.022365
v 0.365606 0.092903 0.022365
v 0.365606 0.581022 0.022365
v -0.365606 0.581022 0.022365
vt 0.375000 0.000000
vt 0.625000 0.000000
vt 0.375000 0.250000
vt 0.625000 0.250000
vt 0.375000 0.500000
vt 0.625000 0.500000
vt 0.375000 0.750000
vt 0.625000 0.750000
vt 0.375000 1.000000
vt 0.625000 1.000000
vt 0.875000 0.000000
vt 0.875000 0.250000
vt 0.125000 0.000000
vt 0.125000 0.250000
vt 0.375000 0.250000
vt 0.625000 0.250000
vt 0.625000 0.500000
vt 0.375000 0.500000
vt 0.375000 0.250000
vt 0.625000 0.250000
vt 0.625000 0.500000
vt 0.375000 0.500000
vt 0.375000 0.250000
vt 0.625000 0.250000
vt 0.625000 0.250000
vt 0.375000 0.250000
vt 0.375000 0.250000
vt 0.625000 0.250000
vt 0.625000 0.250000
vt 0.375000 0.250000
vt 0.375000 0.250000
vt 0.625000 0.250000
vt 0.625000 0.250000
vt 0.375000 0.250000
vt 0.375000 0.250000
vt 0.625000 0.250000
vt 0.625000 0.250000
vt 0.375000 0.250000
vn 0.000000 0.000000 1.000000
vn 0.000000 0.000000 1.000000
vn 0.000000 0.000000 1.000000
vn 0.000000 0.000000 1.000000
vn 0.000000 1.000000 0.000000
vn 0.000000 1.000000 0.000000
vn 0.000000 1.000000 0.000000
vn 0.000000 1.000000 0.000000
vn 0.000000 0.000000 -1.000000
vn 0.000000 0.000000 -1.000000
vn 0.000000 0.000000 -1.000000
vn 0.000000 0.000000 -1.000000
vn 0.000000 -1.000000 0.000000
vn 0.000000 -1.000000 0.000000
vn 0.000000 -1.000000 0.000000
vn 0.000000 -1.000000 0.000000
vn 1.000000 0.000000 0.000000
vn 1.000000 0.000000 0.000000
vn 1.000000 0.000000 0.000000
vn 1.000000 0.000000 0.000000
vn -1.000000 0.000000 0.000000
vn -1.000000 0.000000 0.000000
vn -1.000000 0.000000 0.000000
vn -1.000000 0.000000 0.000000
vn 0.000000 1.000000 0.000000
vn 0.000000 1.000000 0.000000
vn 0.000000 1.000000 0.000000
vn 0.000000 1.000000 0.000000
vn 0.000000 1.000000 -0.000000
vn 0.000000 1.000000 -0.000000
vn 0.000000 1.000000 -0.000000
vn 0.000000 1.000000 -0.000000
vn 0.018809 0.000000 0.999823
vn -0.018809 0.000000 0.999823
vn -0.018809 0.000000 0.999823
vn 0.018809 0.000000 0.999823
vn 1.000000 0.000000 0.000000
vn 1.000000 0.000000 0.000000
vn 1.000000 0.000000 0.000000
vn 1.000000 0.000000 0.000000
vn 0.000000 0.000000 -1.000000
vn 0.000000 0.000000 -1.000000
vn 0.000000 0.000000 -1.000000
vn 0.000000 0.000000 -1.000000
vn -1.000000 0.000000 0.000000
vn -1.000000 0.000000 0.000000
vn -1.000000 0.000000 0.000000
vn -1.000000 0.000000 0.000000
vn 0.000000 0.000000 1.000000
vn 0.000000 0.000000 1.000000
vn 0.000000 0.000000 1.000000
vn 0.000000 0.000000 1.000000
vn 0.000000 0.000000 0.000000
vn 0.000000 0.000000 0.000000
vn 0.000000 0.000000 0.000000
vn 0.000000 0.000000 0.000000
vn 0.000000 0.000000 1.000000
vn 0.000000 0.000000 1.000000
vn 0.000000 0.000000 1.000000
vn 0.000000 0.000000 1.000000
vn 0.000000 0.000000 0.000000
vn 0.000000 0.000000 0.000000
vn 1.000000 0.000000 0.000000
vn 1.000000 0.000000 0.000000
vn 0.000000 -0.188695 -0.982036
vn 0.000000 -0.188695 -0.982036
vn 0.000000 -0.188695 -0.982036
vn 0.000000 -0.188695 -0.982036
vn 0.121301 0.000000 -0.992616
vn 0.121301 0.000000 -0.992616
vn 0.121301 0.000000 -0.992616
vn 0.121301 0.000000 -0.992616
vn 0.000000 0.188695 -0.982036
vn 0.000000 0.188695 -0.982036
vn 0.000000 0.188695 -0.982036
vn 0.000000 0.188695 -0.982036
vn -0.121301 0.000000 -0.992616
vn -0.121301 0.000000 -0.992616
vn -0.121301 0.000000 -0.992616
vn -0.121301 0.000000 -0.992616
vn 0.000000 -1.000000 0.000000
vn 0.000000 -1.000000 0.000000
vn 0.000000 -1.000000 0.000000
vn 0.000000 -1.000000 0.000000
vn 1.000000 0.000000 0.000000
vn 1.000000 0.000000 0.000000
vn 1.000000 0.000000 0.000000
vn 1.000000 0.000000 0.000000
vn 0.000000 1.000000 0.000000
vn 0.000000 1.000000 0.000000
vn 0.000000 1.000000 0.000000
vn 0.000000 1.000000 0.000000
vn -1.000000 0.000000 0.000000
vn -1.000000 0.000000 0.000000
vn -1.000000 0.000000 0.000000
vn -1.000000 0.000000 0.000000
vn 0.000000 0.468779 0.883316
vn 0.000000 0.468779 0.883316
vn 0.000000 0.468779 0.883315
vn 0.000000 0.468779 0.883315
vn -0.507936 0.000000 0.861395
vn -0.507936 0.000000 0.861395
vn 0.000000 -0.468780 0.883315
vn 0.000000 -0.468780 0.883315
vn 0.000000 -0.468780 0.883315
vn 0.000000 -0.468780 0.883315
vn 0.507936 0.000000 0.861395
vn 0.507936 0.000000 0.861395
s off
g pCube1
usemtl lambert2SG
f 1/1/1 2/2/2 4/4/3 3/3/4
f 13/19/5 14/20/6 15/21/7 16/22/8
f 5/5/9 6/6/10 8/8/11 7/7/12
f 7/7/13 8/8/14 2/10/15 1/9/16
f 2/2/17 8/11/18 6/12/19 4/4/20
f 7/13/21 1/1/22 3/3/23 5/14/24
s 1
f 3/3/25 4/4/26 10/16/27 9/15/28
f 4/4/26 6/6/29 11/17/30 10/16/27
f 6/6/29 5/5/31 12/18/32 11/17/30
f 5/5/31 3/3/25 9/15/28 12/18/32
s 2
f 29/35/33 30/36/34 31/37/35 32/38/36
s off
f 10/16/37 11/17/38 15/21/39 14/20/40
f 11/17/41 12/18/42 16/22/43 15/21/44
f 12/18/45 9/15/46 13/19/47 16/22/48
f 9/15/49 10/16/50 18/24/51 17/23/52
f 10/16/53 14/20/54 19/25/55 18/24/56
f 14/20/57 13/19/58 20/26/59 19/25/60
f 13/19/61 9/15/62 17/23/63 20/26/64
f 17/23/65 18/24/66 22/28/67 21/27/68
f 18/24/69 19/25/70 23/29/71 22/28/72
f 19/25/73 20/26/74 24/30/75 23/29/76
f 20/26/77 17/23/78 21/27/79 24/30/80
f 21/27/81 22/28/82 26/32/83 25/31/84
f 22/28/85 23/29/86 27/33/87 26/32/88
f 23/29/89 24/30/90 28/34/91 27/33/92
f 24/30/93 21/27/94 25/31/95 28/34/96
f 25/31/97 26/32/98 30/36/99 29/35/100
s 2
f 26/32/101 27/33/102 31/37/35 30/36/34
s off
f 27/33/103 28/34/104 32/38/105 31/37/106
s 2
f 28/34/107 25/31/108 29/35/33 32/38/36
