# This file uses centimeters as units for non-parametric coordinates.

mtllib plasma_tv.mtl
g default
v -0.064360 0.776048 -0.099619
v 0.064360 0.776048 -0.099619
v 0.064360 0.984868 -0.099619
v -0.064360 0.984868 -0.099619
v -1.148694 0.042108 0.046238
v 1.148694 0.042108 0.046238
v 1.148694 1.718807 0.046238
v -1.148694 1.718807 0.046238
v -1.148694 0.042108 0.104790
v 1.148694 0.042108 0.104790
v 1.148694 1.718807 0.104790
v -1.148694 1.718807 0.104790
v -1.101520 0.097891 0.074171
v 1.101520 0.097891 0.074171
v 1.101520 1.663025 0.074171
v -1.101520 1.663025 0.074171
vt 0.375000 0.250000
vt 0.625000 0.250000
vt 0.625000 0.250000
vt 0.375000 0.250000
vt 0.375000 0.250000
vt 0.625000 0.250000
vt 0.625000 0.250000
vt 0.375000 0.250000
vt 0.375000 0.250000
vt 0.625000 0.250000
vt 0.625000 0.250000
vt 0.375000 0.250000
vt 0.375000 0.250000
vt 0.625000 0.250000
vt 0.625000 0.250000
vt 0.375000 0.250000
vn 0.020856 0.000000 0.999783
vn -0.020856 0.000000 0.999783
vn -0.020856 0.000000 0.999783
vn 0.020856 0.000000 0.999783
vn 0.000000 -0.194920 -0.980819
vn 0.000000 -0.194920 -0.980819
vn 0.000000 -0.194920 -0.980819
vn 0.000000 -0.194920 -0.980819
vn 0.133312 0.000000 -0.991074
vn 0.133312 0.000000 -0.991074
vn 0.133312 0.000000 -0.991074
vn 0.133312 0.000000 -0.991074
vn 0.000000 0.194920 -0.980819
vn 0.000000 0.194920 -0.980819
vn 0.000000 0.194920 -0.980819
vn 0.000000 0.194920 -0.980819
vn -0.133312 0.000000 -0.991074
vn -0.133312 0.000000 -0.991074
vn -0.133312 0.000000 -0.991074
vn -0.133312 0.000000 -0.991074
vn 0.000000 -1.000000 0.000000
vn 0.000000 -1.000000 0.000000
vn 0.000000 -1.000000 0.000000
vn 0.000000 -1.000000 0.000000
vn 1.000000 0.000000 0.000000
vn 1.000000 0.000000 0.000000
vn 1.000000 0.000000 0.000000
vn 1.000000 0.000000 0.000000
vn 0.000000 1.000000 0.000000
vn 0.000000 1.000000 0.000000
vn 0.000000 1.000000 0.000000
vn 0.000000 1.000000 0.000000
vn -1.000000 0.000000 0.000000
vn -1.000000 0.000000 0.000000
vn -1.000000 0.000000 0.000000
vn -1.000000 0.000000 0.000000
vn 0.000000 0.481171 0.876627
vn 0.000000 0.481171 0.876627
vn 0.000000 0.481171 0.876627
vn 0.000000 0.481171 0.876627
vn -0.544432 0.000000 0.838805
vn -0.544432 0.000000 0.838805
vn 0.000000 -0.481177 0.876623
vn 0.000000 -0.481177 0.876623
vn 0.000000 -0.481177 0.876623
vn 0.000000 -0.481177 0.876623
vn 0.544432 0.000000 0.838805
vn 0.544432 0.000000 0.838805
vn 0.000000 0.000000 -1.000000
vn 0.000000 0.000000 -1.000000
vn 0.000000 0.000000 -1.000000
vn 0.000000 0.000000 -1.000000
s 1
g pCube1
usemtl phong1SG
f 13/13/1 14/14/2 15/15/3 16/16/4
s off
f 1/1/5 2/2/6 6/6/7 5/5/8
f 2/2/9 3/3/10 7/7/11 6/6/12
f 3/3/13 4/4/14 8/8/15 7/7/16
f 4/4/17 1/1/18 5/5/19 8/8/20
f 5/5/21 6/6/22 10/10/23 9/9/24
f 6/6/25 7/7/26 11/11/27 10/10/28
f 7/7/29 8/8/30 12/12/31 11/11/32
f 8/8/33 5/5/34 9/9/35 12/12/36
f 9/9/37 10/10/38 14/14/39 13/13/40
s 1
f 10/10/41 11/11/42 15/15/3 14/14/2
s off
f 11/11/43 12/12/44 16/16/45 15/15/46
s 1
f 12/12/47 9/9/48 13/13/1 16/16/4
s off
f 2/2/49 1/1/50 4/4/51 3/3/52
